<?xml version="1.0" encoding="UTF-8" standalone="no"?>
<svg
   version="1.1"
   width="120"
   height="120"
   viewBox="0 0 120 120"
   xmlns="http://www.w3.org/2000/svg"
   xmlns:svg="http://www.w3.org/2000/svg">
  <defs
     id="defs14" />
  <g
     id="g16"
     transform="matrix(1.3333333,0,0,-1.3333333,59.999996,60.000002)">
    <path
       d="m 0,0 -1.488,-2.576 -3.008,0.018 v 0 l -1.504,2.558 1.504,2.576 h 0.016 l 2.992,-0.018 z"
       style="fill:#5277c3;fill-opacity:1;fill-rule:nonzero;stroke:none"
       id="path18" />
    <path
       d="m -6.016,-10.415 -1.504,-2.576 -2.992,0.018 v 0 l -1.504,2.558 1.504,2.576 h 0.016 l 2.976,-0.018 z"
       style="fill:#5277c3;fill-opacity:1;fill-rule:nonzero;stroke:none"
       id="path20" />
    <path
       d="m 6,-10.415 -1.504,-2.576 -2.992,0.018 v 0 l -1.504,2.558 1.504,2.576 h 0.016 l 2.976,-0.018 z"
       style="fill:#5277c3;fill-opacity:1;fill-rule:nonzero;stroke:none"
       id="path22" />
    <path
       d="m -11.744,-0.018 -1.504,-2.558 -2.992,0.018 v 0 l -1.504,2.54 1.504,2.576 h 0.016 l 2.976,-0.018 z"
       style="fill:#5277c3;fill-opacity:1;fill-rule:nonzero;stroke:none"
       id="path24" />
    <path
       d="m 11.76,-0.018 -1.504,-2.558 -3.008,0.018 v 0 l -1.504,2.54 1.504,2.576 h 0.016 l 2.992,-0.018 z"
       style="fill:#5277c3;fill-opacity:1;fill-rule:nonzero;stroke:none"
       id="path26" />
    <path
       d="m -5.84,10.397 -1.504,-2.576 -2.992,0.018 v 0 l -1.504,2.558 1.504,2.558 h 0.016 l 2.976,-0.018 z"
       style="fill:#7ebae4;fill-opacity:1;fill-rule:nonzero;stroke:none"
       id="path28" />
    <path
       d="m 6.128,10.397 -1.504,-2.576 -2.992,0.018 v 0 l -1.504,2.558 1.488,2.558 h 0.016 l 2.992,-0.018 z"
       style="fill:#7ebae4;fill-opacity:1;fill-rule:nonzero;stroke:none"
       id="path30" />
    <path
       d="m -17.872,-10.415 -1.504,-2.576 -2.992,0.018 v 0 l -1.504,2.558 1.504,2.576 h 0.016 l 2.976,-0.018 z"
       style="fill:#7ebae4;fill-opacity:1;fill-rule:nonzero;stroke:none"
       id="path32" />
    <path
       d="m 17.888,-10.415 -1.504,-2.576 -2.992,0.018 v 0 l -1.504,2.558 1.504,2.576 h 0.016 l 2.976,-0.018 z"
       style="fill:#7ebae4;fill-opacity:1;fill-rule:nonzero;stroke:none"
       id="path34" />
    <path
       d="m -17.856,10.397 -1.504,-2.576 -2.992,0.018 v 0 l -1.488,2.558 1.488,2.558 h 0.016 l 2.992,-0.018 z"
       style="fill:#7ebae4;fill-opacity:1;fill-rule:nonzero;stroke:none"
       id="path36" />
    <path
       d="m 17.904,10.397 -1.504,-2.576 -2.992,0.018 v 0 l -1.504,2.558 1.504,2.558 h 0.016 l 2.976,-0.018 z"
       style="fill:#7ebae4;fill-opacity:1;fill-rule:nonzero;stroke:none"
       id="path38" />
    <path
       d="m 0,20.794 -1.488,-2.576 -3.008,0.018 v 0 l -1.504,2.558 1.504,2.576 h 0.016 l 2.992,-0.018 z"
       style="fill:#7ebae4;fill-opacity:1;fill-rule:nonzero;stroke:none"
       id="path40" />
    <path
       d="m 0,-20.813 -1.488,-2.576 -3.008,0.018 v 0 l -1.504,2.558 1.504,2.576 h 0.016 l 2.992,-0.018 z"
       style="fill:#7ebae4;fill-opacity:1;fill-rule:nonzero;stroke:none"
       id="path42" />
    <path
       d="m -23.872,0 -1.504,-2.576 -2.992,0.018 v 0 l -1.504,2.558 1.504,2.576 h 0.016 l 2.976,-0.018 z"
       style="fill:#7ebae4;fill-opacity:1;fill-rule:nonzero;stroke:none"
       id="path44" />
    <path
       d="m 23.888,0 -1.504,-2.576 -2.992,0.018 v 0 l -1.504,2.558 1.504,2.576 h 0.016 l 2.976,-0.018 z"
       style="fill:#7ebae4;fill-opacity:1;fill-rule:nonzero;stroke:none"
       id="path46" />
    <path
       d="m -11.984,20.794 -1.504,-2.576 -2.992,0.018 v 0 l -1.504,2.558 1.504,2.576 h 0.016 l 2.976,-0.018 z"
       style="fill:#7ebae4;fill-opacity:1;fill-rule:nonzero;stroke:none"
       id="path48" />
    <path
       d="m 12,20.794 -1.504,-2.576 -2.992,0.018 v 0 l -1.504,2.558 1.504,2.576 h 0.016 l 2.976,-0.018 z"
       style="fill:#7ebae4;fill-opacity:1;fill-rule:nonzero;stroke:none"
       id="path50" />
    <path
       d="m -11.984,-20.813 -1.504,-2.576 -2.992,0.018 v 0 l -1.504,2.558 1.504,2.576 h 0.016 l 2.976,-0.018 z"
       style="fill:#7ebae4;fill-opacity:1;fill-rule:nonzero;stroke:none"
       id="path52" />
    <path
       d="m 12,-20.813 -1.504,-2.576 -2.992,0.018 v 0 l -1.504,2.558 1.504,2.576 h 0.016 l 2.976,-0.018 z"
       style="fill:#7ebae4;fill-opacity:1;fill-rule:nonzero;stroke:none"
       id="path54" />
  </g>
</svg>